<?xml version="1.0" encoding="utf-8"?>
<!-- Generator: Adobe Illustrator 18.0.0, SVG Export Plug-In . SVG Version: 6.00 Build 0)  -->
<!DOCTYPE svg PUBLIC "-//W3C//DTD SVG 1.1//EN" "http://www.w3.org/Graphics/SVG/1.1/DTD/svg11.dtd">
<svg version="1.1" id="Layer_1" xmlns="http://www.w3.org/2000/svg" xmlns:xlink="http://www.w3.org/1999/xlink" x="0px" y="0px"
	 width="1400px" height="1400px" viewBox="0 0 1400 1400" enable-background="new 0 0 1400 1400" xml:space="preserve">
<g>
	<path fill="#FEE102" d="M1232.3,777.7v-14.2c0-29.4,23.9-53.3,53.3-53.3h0c29.4,0,53.3-23.9,53.3-53.3v-1.2
		c0-29.4-23.9-53.3-53.3-53.3h-45.7c-22.3,0-40.3-18.1-40.3-40.3v-27c0-22.3-18.1-40.3-40.3-40.3h-37.4c-22.3,0-40.3-18.1-40.3-40.3
		v-26.1c0-22.3-18.1-40.3-40.3-40.3H597.4c-22.3,0-40.3,18.1-40.3,40.3v26.1c0,22.3-18.1,40.3-40.3,40.3H176.4
		c-29.8,0-53.9,24.1-53.9,53.9v0c0,29.8,24.1,53.9,53.9,53.9h130.8c22.3,0,40.3,18.1,40.3,40.3v27c0,22.3-18.1,40.3-40.3,40.3h-63.7
		c-22.3,0-40.3,18.1-40.3,40.3v26.3c0,22.3-18.1,40.3-40.3,40.3H115c-29.8,0-53.9,24.1-53.9,53.9v0c0,29.8,24.1,53.9,53.9,53.9h79.1
		c29.4,0,53.2,23.8,53.2,53.2v0c0,29.4-23.8,53.2-53.2,53.2h-38.5c-29.8,0-53.9,24.1-53.9,53.9v0c0,29.8,24.1,53.9,53.9,53.9h602.2
		v-106.7h506.5c29.8,0,53.9-24.1,53.9-53.9v0c0-29.8-24.1-53.9-53.9-53.9H1192c-22.3,0-40.3-18.1-40.3-40.3v-26
		c0-22.3,18.1-40.3,40.3-40.3h0C1214.3,818.1,1232.3,800,1232.3,777.7z"/>
	<circle fill="#155A7C" cx="722.1" cy="749.4" r="411.4"/>
	<path fill="#07324C" d="M953.8,409.5c45.1,66,71.4,145.8,71.4,231.7c0,227.2-184.2,411.4-411.4,411.4
		c-85.9,0-165.7-26.4-231.7-71.4c74.1,108.5,198.7,179.6,339.9,179.6c227.2,0,411.4-184.2,411.4-411.4
		C1133.4,608.2,1062.2,483.6,953.8,409.5z"/>
	<path fill="#052C3F" d="M435.3,478.1c0,0-33.9,75.4-33.9,77.1c0,1.7-3.5,62.7-3.5,62.7l38,95.5l37.4,33.4l8.6-19l-15.5-41.4
		L456,649l16.1-12.1l30.5,8.1l28.2-50.1l36.2-40.3l39.7-20.1l15.5-51.8l-5.2-17.3l-21.9-2.3l-35.1,19.6l-13.6-14.4l5.6-21.9
		l27.6-17.8l35.1-7.7l2.3-21.1l-15.5-6.9l-25.3,9.2L537.2,416l-33.4,5h-27.9c-16,11.3-31.1,23.8-45.3,37.3L435.3,478.1z"/>
	<path fill="#052C3F" d="M513.6,731.5l51.2,2.7l27.6,22.3l23.6,5.3l13.2,35.1l46.6,27.6l9.2,17.8L662,874v13.8l6.4,29.3l-34.6,20.1
		L622.9,966l-36.2,70.2l12.7,42l-4.6,21.9c0,0-33.4-50.1-32.8-52.9s-17.8-143.8-17.8-143.8l-33.9-20.7l-19-55.8l24.2-56.4
		L513.6,731.5z"/>
	<polygon fill="#052C3F" points="622.3,372.8 643,359 704.6,362.5 735.7,379.7 735.7,400.4 685.6,439 668.4,473.5 653.4,451.7 
		653.4,385.5 625.8,379.7 	"/>
	<path fill="#052C3F" d="M1015.3,693.9l14.4-32.2l-13.8-28.8l23.6,4l23,38.5l6.3,35.7l13.2,24.7l16.1-36.2l12.4-52.9
		c-31.1-112.8-109.1-206.1-211.6-257.8l-3.9,23.6l-25.9,14.4l-36.2-16.1l-8.1,22.4l3.5,50.1h17.3l17-21.9l11.2,9.8l-7.5,24.2
		L844.4,508l-23.6,4.6V546l-22.4,30.5l4,19l33.9-19l29.9-27.6l25.3,7.5l18.4,9.2l23-31.6l17.3,6.9l4,22.4l-19,25.3l21.9,24.2
		l-31.1,6.3l-38-5.2l-23.6-15l-40.9,20.1L792,640.4l-9.8,60.4l5.8,39.7l23.6,21.9l65-5.9l15,12.8l-0.6,48.3l15.5,42l-1.7,32.8
		l-35.1,28.8l9.2,40.9l24.7,24.7l38.5-42l37.4-44.9l20.1-54.7v-48.9l29.9-72.5L1015.3,693.9z"/>
	<polygon fill="#052C3F" points="1019.8,873.8 1001.4,908.3 985.2,931.3 989.3,946.9 1016.9,922.7 	"/>
	<path fill="#052C3F" d="M1110.5,815.7l-24.6,25.9l4,32.2l-26.5,39.7l-8.6,29.3l-46.6,43.9l-2.9,44.7h14.5
		c48.2-53.6,82.5-120,97.3-193.4L1110.5,815.7z"/>
	<path fill="#4BC4D5" d="M443.4,471.1c0,0-33.9,75.4-33.9,77.1s-3.5,62.7-3.5,62.7l38,95.5l37.4,33.4l8.6-19l-15.5-41.4L464.1,642
		l16.1-12.1l30.5,8.1l28.2-50.1l36.2-40.3l39.7-20.1l15.5-51.8l-5.2-17.3l-21.9-2.3l-35.1,19.6l-13.6-14.4l5.6-21.9l27.6-17.8
		l35.1-7.7l2.3-21.1l-15.5-6.9l-25.3,9.2L545.2,409l-33.4,5H484c-16,11.3-31.1,23.8-45.3,37.3L443.4,471.1z"/>
	<path fill="#4BC4D5" d="M521.7,724.5l51.2,2.7l27.6,22.3l23.6,5.3l13.2,35.1l46.6,27.6l9.2,17.8l-23,31.6v13.8l6.4,29.3l-34.6,20.1
		L631,959l-36.2,70.2l12.7,42l-4.6,21.9c0,0-33.4-50.1-32.8-52.9s-17.8-143.8-17.8-143.8l-33.9-20.7l-19-55.8l24.2-56.4L521.7,724.5
		z"/>
	<polygon fill="#4BC4D5" points="630.4,365.8 651.1,352 712.7,355.4 743.7,372.7 743.7,393.4 693.7,432 676.5,466.5 661.5,444.6 
		661.5,378.5 633.9,372.7 	"/>
	<path fill="#4BC4D5" d="M1023.4,686.9l14.4-32.2l-13.8-28.8l23.6,4l23,38.5l6.3,35.7l13.2,24.7l16.1-36.2l12.4-52.9
		c-31.1-112.8-109.1-206.1-211.6-257.8l-3.9,23.6l-25.9,14.4L841,403.8l-8.1,22.4l3.5,50.1h17.3l17-21.9l11.2,9.8l-7.5,24.2
		L852.5,501l-23.6,4.6V539l-22.4,30.5l4,19l33.9-19l29.9-27.6l25.3,7.5l18.4,9.2l23-31.6l17.3,6.9l4,22.4l-19,25.3l21.9,24.2
		l-31.1,6.3l-38-5.2l-23.6-15l-40.9,20.1l-31.6,21.3l-9.8,60.4l5.8,39.7l23.6,21.9l65-5.9l15,12.8l-0.6,48.3l15.5,42l-1.7,32.8
		l-35.1,28.8L887,955l24.7,24.7l38.5-42l37.4-44.9l20.1-54.7v-48.9l29.9-72.5L1023.4,686.9z"/>
	<polygon fill="#4BC4D5" points="1027.9,866.8 1009.4,901.3 993.3,924.3 997.4,939.8 1025,915.7 	"/>
	<path fill="#4BC4D5" d="M1118.6,808.6l-24.6,25.9l4,32.2l-26.5,39.7l-8.6,29.3l-46.6,43.9l-2.9,44.7h14.5
		c48.2-53.6,82.5-120,97.3-193.4L1118.6,808.6z"/>
	<g>
		<path fill="#FAF9EF" d="M142.8,798.2H441c16.2,0,31.9,5.1,45,14.5l8.9,6.4c7.2,5.2,7.5,15.8,0.6,21.3h0
			c-6.4,5.1-14.3,7.9-22.5,7.9H262.5c-40.4,0-79.5-14.7-109.8-41.4L142.8,798.2z"/>
		<polygon fill="#F94D39" points="177.8,798.2 148.9,756.4 177.8,756.4 227.9,798.2 		"/>
		<polygon fill="#F94D39" points="299.4,798.2 266.7,767.8 299.4,767.8 356.4,798.2 		"/>
		<polygon fill="#F94D39" points="306.2,828.6 262.1,875 306.2,875 385.3,828.6 		"/>
		<path fill="#4CC5D6" d="M441.1,810.9V822c0,0.7,0.6,1.3,1.3,1.3H469c1.3,0,1.8-1.7,0.7-2.4l-18.6-11.1c-0.2-0.1-0.4-0.2-0.7-0.2
			h-8.1C441.7,809.6,441.1,810.2,441.1,810.9z"/>
		<path fill="#4CC5D6" d="M396.5,823.3h0.3c3.6,0,6.5-2.9,6.5-6.5v-0.7c0-3.6-2.9-6.5-6.5-6.5h-0.3c-3.6,0-6.5,2.9-6.5,6.5v0.7
			C390,820.4,392.9,823.3,396.5,823.3z"/>
		<path fill="#4CC5D6" d="M356.2,823.3h0.3c3.6,0,6.5-2.9,6.5-6.5v-0.7c0-3.6-2.9-6.5-6.5-6.5h-0.3c-3.6,0-6.5,2.9-6.5,6.5v0.7
			C349.8,820.4,352.7,823.3,356.2,823.3z"/>
		<path fill="#4CC5D6" d="M316,823.3h0.3c3.6,0,6.5-2.9,6.5-6.5v-0.7c0-3.6-2.9-6.5-6.5-6.5H316c-3.6,0-6.5,2.9-6.5,6.5v0.7
			C309.5,820.4,312.4,823.3,316,823.3z"/>
		<path fill="#4CC5D6" d="M275.7,823.3h0.3c3.6,0,6.5-2.9,6.5-6.5v-0.7c0-3.6-2.9-6.5-6.5-6.5h-0.3c-3.6,0-6.5,2.9-6.5,6.5v0.7
			C269.2,820.4,272.1,823.3,275.7,823.3z"/>
		<path fill="#4CC5D6" d="M235.4,823.3h0.3c3.6,0,6.5-2.9,6.5-6.5v-0.7c0-3.6-2.9-6.5-6.5-6.5h-0.3c-3.6,0-6.5,2.9-6.5,6.5v0.7
			C229,820.4,231.9,823.3,235.4,823.3z"/>
	</g>
	<g>
		<circle fill="#D93B0F" cx="469.3" cy="263.6" r="139.8"/>
		<path fill="#FAF9EF" d="M511.7,263.6c0-51.5-15-99.5-40.9-139.8c76.5,0.8,138.3,63.1,138.3,139.8s-61.8,139-138.3,139.8
			C496.7,363.1,511.7,315.1,511.7,263.6z"/>
		<path fill="#D93B0F" d="M572,263.6c0-64.9-41.9-120.1-100.2-139.8c76.1,1.3,137.4,63.4,137.4,139.8s-61.3,138.5-137.4,139.8
			C530,383.7,572,328.5,572,263.6z"/>
		<path fill="#FAF9EF" d="M426.9,263.6c0-51.5,15-99.5,40.9-139.8c-76.5,0.8-138.3,63.1-138.3,139.8s61.8,139,138.3,139.8
			C441.9,363.1,426.9,315.1,426.9,263.6z"/>
		<path fill="#D93B0F" d="M366.6,263.6c0-64.9,41.9-120.1,100.2-139.8c-76.1,1.3-137.4,63.4-137.4,139.8s61.3,138.5,137.4,139.8
			C408.6,383.7,366.6,328.5,366.6,263.6z"/>
		<polygon fill="#D93B0F" points="469.3,370.8 379.5,370.8 421.8,434.7 469.3,434.7 516.8,434.7 559.1,370.8 		"/>
		<g>
			
				<rect x="332.8" y="408.3" transform="matrix(0.4313 0.9022 -0.9022 0.4313 596.2059 -125.2912)" fill="#D93B0F" width="129.3" height="4"/>
		</g>
		<polygon fill="#D93B0F" points="508.3,542.6 435.2,542.6 421.1,468.3 522.4,468.3 		"/>
		<g>
			
				<rect x="544.1" y="345.6" transform="matrix(0.9022 0.4313 -0.4313 0.9022 230.3708 -195.4025)" fill="#D93B0F" width="4" height="129.3"/>
		</g>
		<g>
			<rect x="469.8" y="424.8" fill="#D93B0F" width="4" height="43.5"/>
		</g>
	</g>
	<path fill="#FAF9EF" d="M360.5,948.4h-79.9c-2,0-3.7-1.7-3.7-3.7s1.7-3.7,3.7-3.7h79.9c2,0,3.7,1.7,3.7,3.7
		S362.6,948.4,360.5,948.4z"/>
	<path fill="#FAF9EF" d="M380,948.4h-5.7c-2,0-3.7-1.7-3.7-3.7s1.7-3.7,3.7-3.7h5.7c2,0,3.7,1.7,3.7,3.7S382,948.4,380,948.4z"/>
	<path fill="#FAF9EF" d="M434.5,728.2h-79.9c-2,0-3.7-1.7-3.7-3.7s1.7-3.7,3.7-3.7h79.9c2,0,3.7,1.7,3.7,3.7
		S436.6,728.2,434.5,728.2z"/>
	<path fill="#FAF9EF" d="M567.8,551.3h-43c-2,0-3.7-1.7-3.7-3.7c0-2,1.7-3.7,3.7-3.7h43c2,0,3.7,1.7,3.7,3.7
		C571.5,549.7,569.8,551.3,567.8,551.3z"/>
	<path fill="#FAF9EF" d="M828.9,695.3h-12.8c-2,0-3.7-1.7-3.7-3.7c0-2,1.7-3.7,3.7-3.7h12.8c2,0,3.7,1.7,3.7,3.7
		C832.6,693.6,831,695.3,828.9,695.3z"/>
	<path fill="#FAF9EF" d="M688.5,1012.2h-12.8c-2,0-3.7-1.7-3.7-3.7s1.7-3.7,3.7-3.7h12.8c2,0,3.7,1.7,3.7,3.7
		S690.5,1012.2,688.5,1012.2z"/>
	<path fill="#FAF9EF" d="M722.1,1012.2h-12.8c-2,0-3.7-1.7-3.7-3.7s1.7-3.7,3.7-3.7h12.8c2,0,3.7,1.7,3.7,3.7
		S724.1,1012.2,722.1,1012.2z"/>
	<path fill="#FAF9EF" d="M1008.8,779.2H996c-2,0-3.7-1.7-3.7-3.7c0-2,1.7-3.7,3.7-3.7h12.8c2,0,3.7,1.7,3.7,3.7
		C1012.5,777.6,1010.8,779.2,1008.8,779.2z"/>
	<path fill="#FAF9EF" d="M1028,779.2h-6.5c-2,0-3.7-1.7-3.7-3.7c0-2,1.7-3.7,3.7-3.7h6.5c2,0,3.7,1.7,3.7,3.7
		C1031.7,777.6,1030,779.2,1028,779.2z"/>
	<path fill="#FAF9EF" d="M786.2,1012.2h-36.6c-2,0-3.7-1.7-3.7-3.7s1.7-3.7,3.7-3.7h36.6c2,0,3.7,1.7,3.7,3.7
		S788.3,1012.2,786.2,1012.2z"/>
	<path fill="#FAF9EF" d="M786.2,1135.9h-77c-2,0-3.7-1.7-3.7-3.7s1.7-3.7,3.7-3.7h77c2,0,3.7,1.7,3.7,3.7S788.3,1135.9,786.2,1135.9
		z"/>
	<path fill="#FAF9EF" d="M828.7,1135.9h-24.6c-2,0-3.7-1.7-3.7-3.7s1.7-3.7,3.7-3.7h24.6c2,0,3.7,1.7,3.7,3.7
		S830.8,1135.9,828.7,1135.9z"/>
	<path fill="#FAF9EF" d="M885.7,695.3h-42c-2,0-3.7-1.7-3.7-3.7c0-2,1.7-3.7,3.7-3.7h42c2,0,3.7,1.7,3.7,3.7
		C889.4,693.6,887.7,695.3,885.7,695.3z"/>
	<path fill="#FAF9EF" d="M1090.4,546.6H990.2c-2,0-3.7-1.7-3.7-3.7c0-2,1.7-3.7,3.7-3.7h100.2c2,0,3.7,1.7,3.7,3.7
		C1094.1,545,1092.4,546.6,1090.4,546.6z"/>
	<path fill="#FAF9EF" d="M976.3,546.6h-17.8c-2,0-3.7-1.7-3.7-3.7c0-2,1.7-3.7,3.7-3.7h17.8c2,0,3.7,1.7,3.7,3.7
		C980,545,978.3,546.6,976.3,546.6z"/>
	<path fill="#FAF9EF" d="M672.8,551.3h-84.7c-2,0-3.7-1.7-3.7-3.7c0-2,1.7-3.7,3.7-3.7h84.7c2,0,3.7,1.7,3.7,3.7
		C676.5,549.7,674.9,551.3,672.8,551.3z"/>
	<path fill="#FAF9EF" d="M471,728.2h-11.9c-2,0-3.7-1.7-3.7-3.7s1.7-3.7,3.7-3.7H471c2,0,3.7,1.7,3.7,3.7S473,728.2,471,728.2z"/>
	<path fill="#FAF9EF" d="M503.5,728.2h-11.9c-2,0-3.7-1.7-3.7-3.7s1.7-3.7,3.7-3.7h11.9c2,0,3.7,1.7,3.7,3.7
		S505.6,728.2,503.5,728.2z"/>
	<g>
		<ellipse fill="#289799" cx="456.6" cy="682.2" rx="12.7" ry="9.4"/>
		<ellipse fill="#D93B0F" cx="456.6" cy="682.2" rx="6.7" ry="5"/>
	</g>
	<path fill="#FFDA00" d="M478.4,643.2c0-12.1-9.8-21.8-21.8-21.8c-12.1,0-21.8,9.8-21.8,21.8c0,0-1.2,21.8,21.8,39
		C479.6,665,478.4,643.2,478.4,643.2z M456.6,653.9c-5.9,0-10.7-4.8-10.7-10.7c0-5.9,4.8-10.7,10.7-10.7c5.9,0,10.7,4.8,10.7,10.7
		C467.3,649.1,462.5,653.9,456.6,653.9z"/>
	<g>
		<ellipse fill="#289799" cx="857.9" cy="436.8" rx="12.7" ry="9.4"/>
		<ellipse fill="#D93B0F" cx="857.9" cy="436.8" rx="6.7" ry="5"/>
	</g>
	<path fill="#FFDA00" d="M879.7,397.8c0-12.1-9.8-21.8-21.8-21.8s-21.8,9.8-21.8,21.8c0,0-1.2,21.8,21.8,39
		C881,419.7,879.7,397.8,879.7,397.8z M857.9,408.6c-5.9,0-10.7-4.8-10.7-10.7c0-5.9,4.8-10.7,10.7-10.7c5.9,0,10.7,4.8,10.7,10.7
		C868.6,403.8,863.8,408.6,857.9,408.6z"/>
	<g>
		<ellipse fill="#289799" cx="958" cy="869.5" rx="12.7" ry="9.4"/>
		<ellipse fill="#D93B0F" cx="958" cy="869.5" rx="6.7" ry="5"/>
	</g>
	<path fill="#FFDA00" d="M979.8,830.5c0-12.1-9.8-21.8-21.8-21.8c-12.1,0-21.8,9.8-21.8,21.8c0,0-1.2,21.8,21.8,39
		C981,852.3,979.8,830.5,979.8,830.5z M958,841.2c-5.9,0-10.7-4.8-10.7-10.7c0-5.9,4.8-10.7,10.7-10.7c5.9,0,10.7,4.8,10.7,10.7
		C968.7,836.4,963.9,841.2,958,841.2z"/>
	<g>
		<ellipse fill="#289799" cx="598.4" cy="934.5" rx="12.7" ry="9.4"/>
		<ellipse fill="#D93B0F" cx="598.4" cy="934.5" rx="6.7" ry="5"/>
	</g>
	<path fill="#FFDA00" d="M620.3,895.5c0-12.1-9.8-21.8-21.8-21.8c-12.1,0-21.8,9.8-21.8,21.8c0,0-1.2,21.8,21.8,39
		C621.5,917.3,620.3,895.5,620.3,895.5z M598.4,906.2c-5.9,0-10.7-4.8-10.7-10.7c0-5.9,4.8-10.7,10.7-10.7c5.9,0,10.7,4.8,10.7,10.7
		C609.2,901.4,604.4,906.2,598.4,906.2z"/>
	<g>
		<g>
			<polygon fill="#25F4D6" points="493.7,600.7 478.5,600.7 493.7,579.9 508.9,600.7 			"/>
			<polygon fill="#52FFE2" points="493.7,591.1 481.5,591.1 493.7,574.3 506,591.1 			"/>
		</g>
		<rect x="490.8" y="597.7" fill="#25F4D6" width="6" height="20.1"/>
	</g>
	<g>
		<g>
			<polygon fill="#25F4D6" points="611.2,477.6 596,477.6 611.2,456.8 626.4,477.6 			"/>
			<polygon fill="#52FFE2" points="611.2,468 598.9,468 611.2,451.3 623.4,468 			"/>
		</g>
		<rect x="608.2" y="474.6" fill="#25F4D6" width="6" height="20.1"/>
	</g>
	<g>
		<g>
			<polygon fill="#25F4D6" points="685,401.7 669.8,401.7 685,380.9 700.2,401.7 			"/>
			<polygon fill="#52FFE2" points="685,392.1 672.8,392.1 685,375.4 697.3,392.1 			"/>
		</g>
		<rect x="682" y="398.7" fill="#25F4D6" width="6" height="20.1"/>
	</g>
	<g>
		<g>
			<polygon fill="#25F4D6" points="845.2,539.2 830,539.2 845.2,518.4 860.4,539.2 			"/>
			<polygon fill="#52FFE2" points="845.2,529.6 833,529.6 845.2,512.8 857.4,529.6 			"/>
		</g>
		<rect x="842.2" y="536.2" fill="#25F4D6" width="6" height="20.1"/>
	</g>
	<g>
		<g>
			<polygon fill="#25F4D6" points="1005.4,525.8 990.2,525.8 1005.4,505 1020.6,525.8 			"/>
			<polygon fill="#52FFE2" points="1005.4,516.2 993.2,516.2 1005.4,499.5 1017.6,516.2 			"/>
		</g>
		<rect x="1002.4" y="522.8" fill="#25F4D6" width="6" height="20.1"/>
	</g>
	<g>
		<g>
			<polygon fill="#25F4D6" points="864.7,717.9 849.5,717.9 864.7,697.1 879.9,717.9 			"/>
			<polygon fill="#52FFE2" points="864.7,708.3 852.4,708.3 864.7,691.6 876.9,708.3 			"/>
		</g>
		<rect x="861.7" y="714.9" fill="#25F4D6" width="6" height="20.1"/>
	</g>
	<g>
		<g>
			<polygon fill="#25F4D6" points="1095.3,656.4 1080.1,656.4 1095.3,635.6 1110.5,656.4 			"/>
			<polygon fill="#52FFE2" points="1095.3,646.7 1083.1,646.7 1095.3,630 1107.6,646.7 			"/>
		</g>
		<rect x="1092.4" y="653.4" fill="#25F4D6" width="6" height="20.1"/>
	</g>
	<g>
		<g>
			<polygon fill="#25F4D6" points="923.2,920.4 908,920.4 923.2,899.6 938.4,920.4 			"/>
			<polygon fill="#52FFE2" points="923.2,910.8 911,910.8 923.2,894.1 935.4,910.8 			"/>
		</g>
		<rect x="920.2" y="917.4" fill="#25F4D6" width="6" height="20.1"/>
	</g>
	<g>
		<g>
			<polygon fill="#25F4D6" points="669.8,813.2 654.6,813.2 669.8,792.4 685,813.2 			"/>
			<polygon fill="#52FFE2" points="669.8,803.6 657.6,803.6 669.8,786.9 682.1,803.6 			"/>
		</g>
		<rect x="666.9" y="810.3" fill="#25F4D6" width="6" height="20.1"/>
	</g>
	<g>
		<g>
			<polygon fill="#25F4D6" points="588.1,991.4 572.9,991.4 588.1,970.6 603.3,991.4 			"/>
			<polygon fill="#52FFE2" points="588.1,981.7 575.9,981.7 588.1,965 600.3,981.7 			"/>
		</g>
		<rect x="585.1" y="988.4" fill="#25F4D6" width="6" height="20.1"/>
	</g>
	<path fill="#FAF9EF" d="M876.8,830.4L876.8,830.4c-8.8,0-16.1,5.8-18.5,13.8c-1.9-1-4-1.6-6.3-1.6h0c-7.4,0-13.3,6-13.3,13.3l0,0
		c0,0.3,0,0.6,0,0.9h-12.7c-3.4,0-6.1,2.7-6.1,6.1v0c0,3.4,2.7,6.1,6.1,6.1h23.5c0.8,0.2,1.7,0.2,2.5,0.2h0c0.9,0,1.7-0.1,2.5-0.2
		h22.3h0c10.7,0,19.3-8.7,19.3-19.3l0,0C896.1,839,887.4,830.4,876.8,830.4z"/>
	<path fill="#FAF9EF" d="M996.6,408.7L996.6,408.7c-12.8,0-23.7,8.5-27.2,20.3c-2.8-1.5-5.9-2.3-9.2-2.3h0
		c-10.8,0-19.6,8.8-19.6,19.6v0c0,0.4,0,0.8,0,1.3H922c-5,0-9,4-9,9v0c0,5,4,9,9,9h34.5c1.2,0.2,2.5,0.4,3.7,0.4h0
		c1.3,0,2.5-0.1,3.7-0.4h32.7h0c15.7,0,28.3-12.7,28.3-28.3v0C1025,421.3,1012.3,408.7,996.6,408.7z"/>
	<path fill="#FAF9EF" d="M749.7,1064.5L749.7,1064.5c-12.8,0-23.7,8.5-27.2,20.3c-2.8-1.5-5.9-2.3-9.2-2.3h0
		c-10.8,0-19.6,8.8-19.6,19.6l0,0c0,0.4,0,0.8,0,1.3h-18.7c-5,0-9,4-9,9l0,0c0,5,4,9,9,9h34.5c1.2,0.2,2.5,0.4,3.7,0.4h0
		c1.3,0,2.5-0.1,3.7-0.4h32.7h0c15.7,0,28.3-12.7,28.3-28.3l0,0C778,1077.2,765.3,1064.5,749.7,1064.5z"/>
	<path fill="#FAF9EF" d="M378.5,515.4L378.5,515.4c-12.8,0-23.7,8.5-27.2,20.3c-2.8-1.5-5.9-2.3-9.2-2.3h0
		c-10.8,0-19.6,8.8-19.6,19.6v0c0,0.4,0,0.8,0,1.3h-18.7c-5,0-9,4-9,9v0c0,5,4,9,9,9h34.5c1.2,0.2,2.5,0.4,3.7,0.4h0
		c1.3,0,2.5-0.1,3.7-0.4h32.7h0c15.7,0,28.3-12.7,28.3-28.3v0C406.8,528.1,394.2,515.4,378.5,515.4z"/>
	<g>
		<g>
			<rect x="1224.9" y="599.1" fill="#FFDA00" width="3.8" height="18.7"/>
		</g>
		<path fill="#FAF9EF" d="M974.2,629.4c34.3,5.2,142.8,14,261.1-29.4c3.9-1.4,6.8-4.8,7.7-8.9l6-26.9h-24.4l-16.9,24.4
			c0,0-40.7-1.4-89.9-1.9c-4-4.8-13.2-15.7-17.6-19.3H999.1c0,0-6.2,11.1-9.7,20.9c-33.6,1.4-44.1,4.3-49,14.6
			C940.3,603,939.2,624.1,974.2,629.4z M1013.9,572.2v15.4c-5.9,0.1-11.3,0.3-16.3,0.4l6.2-15.8H1013.9z M1056.8,572.2v14.5
			c-5.9,0.1-11.7,0.2-17.5,0.3c-6.2,0.1-12,0.3-17.5,0.4v-15.2H1056.8z M1108.4,586.7c-14.5-0.1-29.5-0.1-44.2,0v-14.5h30.4
			L1108.4,586.7z"/>
		<path fill="#FFDA00" d="M974.2,629.4c-8-1.2-14.2-3.3-18.8-5.7c50.6-2,143.2,0.1,186.5,1.3C1063.3,638.9,999.1,633.2,974.2,629.4z
			"/>
		<path fill="#FFDA00" d="M994.3,568.7H1107c2.5,0,4.5-2,4.5-4.5v0c0-2.5-2-4.5-4.5-4.5H994.3c-2.5,0-4.5,2-4.5,4.5v0
			C989.8,566.7,991.8,568.7,994.3,568.7z"/>
		<polygon fill="#FAF9EF" points="945.1,603.5 931.8,606.7 945.1,609.3 		"/>
		<path fill="#FFDA00" d="M935.5,646.9L935.5,646.9c1.3,0,2.4-1.1,2.4-2.4V571c0-1.3-1.1-2.4-2.4-2.4l0,0c-1.3,0-2.4,1.1-2.4,2.4
			v73.5C933.2,645.8,934.2,646.9,935.5,646.9z"/>
		<circle fill="#315B75" cx="996.4" cy="643.7" r="12.2"/>
		<circle fill="#FAF9EF" cx="996.4" cy="643.7" r="7.2"/>
		<circle fill="#315B75" cx="1226.7" cy="617.8" r="6"/>
		<circle fill="#FAF9EF" cx="1226.7" cy="617.8" r="3.6"/>
	</g>
</g>
</svg>
